<?xml version="1.0" ?><svg height="18px" version="1.1" viewBox="0 0 18 18" width="18px" xmlns="http://www.w3.org/2000/svg" xmlns:sketch="http://www.bohemiancoding.com/sketch/ns" xmlns:xlink="http://www.w3.org/1999/xlink"><title/><desc/><defs/><g fill="none" fill-rule="evenodd" id="Page-1" stroke="none" stroke-width="1"><g fill="#000000" id="Core" transform="translate(-339.000000, -297.000000)"><g id="launch" transform="translate(339.000000, 297.000000)"><path d="M16,16 L2,16 L2,2 L9,2 L9,0 L2,0 C0.9,0 0,0.9 0,2 L0,16 C0,17.1 0.9,18 2,18 L16,18 C17.1,18 18,17.1 18,16 L18,9 L16,9 L16,16 L16,16 Z M11,0 L11,2 L14.6,2 L4.8,11.8 L6.2,13.2 L16,3.4 L16,7 L18,7 L18,0 L11,0 L11,0 Z" id="Shape"/></g></g></g></svg>